<svg xmlns="http://www.w3.org/2000/svg" width="100%" viewBox="0 0 760 900">
  <defs>
    <marker id="hl-arr" markerWidth="10" markerHeight="7" refX="10" refY="3.5" orient="auto">
      <polygon points="0 0, 10 3.5, 0 7" fill="#7a7a8e"/>
    </marker>
    <marker id="hl-arr-pink" markerWidth="10" markerHeight="7" refX="10" refY="3.5" orient="auto">
      <polygon points="0 0, 10 3.5, 0 7" fill="#f4569d"/>
    </marker>
    <marker id="hl-arr-cyan" markerWidth="10" markerHeight="7" refX="10" refY="3.5" orient="auto">
      <polygon points="0 0, 10 3.5, 0 7" fill="#0fb6d6"/>
    </marker>
  </defs>

  <!-- Agent node -->
  <rect x="250" y="20" width="260" height="100" rx="8" fill="#191621" stroke="rgba(14, 210, 247, 0.3)" stroke-width="2"/>
  <text x="380" y="62" text-anchor="middle" class="svg-heading svg-accent">Agent</text>
  <text x="380" y="88" text-anchor="middle" class="svg-body svg-fg">Decides to call a tool</text>

  <!-- Agent → PreToolUse -->
  <line x1="380" y1="120" x2="380" y2="180" stroke="#7a7a8e" stroke-width="2" marker-end="url(#hl-arr)"/>

  <!-- PreToolUse node -->
  <rect x="250" y="180" width="260" height="100" rx="8" fill="#191621" stroke="rgba(14, 210, 247, 0.15)" stroke-width="1.5"/>
  <text x="380" y="222" text-anchor="middle" class="svg-heading svg-fg">PreToolUse</text>
  <text x="380" y="248" text-anchor="middle" class="svg-sub svg-muted">Annotate · Block · Validate</text>

  <!-- PreToolUse left → Blocked top -->
  <path d="M 250,230 C 170,230 125,280 125,320" fill="none" stroke="#f4569d" stroke-width="1.5" marker-end="url(#hl-arr-pink)"/>
  <text x="168" y="245" text-anchor="middle" class="svg-label svg-pink">block</text>

  <!-- PreToolUse right → Annotated top -->
  <path d="M 510,230 C 590,230 635,280 635,320" fill="none" stroke="#0fb6d6" stroke-width="1.5" marker-end="url(#hl-arr-cyan)"/>
  <text x="592" y="245" text-anchor="middle" class="svg-label svg-accent">allow + context</text>

  <!-- PreToolUse bottom → Tool call -->
  <line x1="380" y1="280" x2="380" y2="440" stroke="#7a7a8e" stroke-width="2" marker-end="url(#hl-arr)"/>
  <text x="390" y="368" class="svg-label svg-muted">pass</text>

  <!-- Blocked node -->
  <rect x="20" y="320" width="210" height="100" rx="8" fill="#191621" stroke="rgba(244, 86, 157, 0.4)" stroke-width="1.5"/>
  <text x="125" y="362" text-anchor="middle" class="svg-heading svg-accent">Blocked</text>
  <text x="125" y="388" text-anchor="middle" class="svg-body svg-muted">Wrong command denied</text>

  <!-- Annotated node -->
  <rect x="530" y="320" width="210" height="100" rx="8" fill="#191621" stroke="rgba(14, 210, 247, 0.3)" stroke-width="1.5"/>
  <text x="635" y="362" text-anchor="middle" class="svg-heading svg-accent">Annotated</text>
  <text x="635" y="384" text-anchor="middle" class="svg-body svg-muted">Context injected</text>
  <text x="635" y="404" text-anchor="middle" class="svg-body svg-muted">Tool still runs</text>

  <!-- Tool call node -->
  <rect x="250" y="460" width="260" height="100" rx="8" fill="#191621" stroke="rgba(14, 210, 247, 0.15)" stroke-width="1.5"/>
  <text x="380" y="502" text-anchor="middle" class="svg-heading svg-fg">Tool call</text>
  <text x="380" y="528" text-anchor="middle" class="svg-sub svg-muted">Bash · Write · Read · MCP</text>

  <!-- Tool call → PostToolUse -->
  <line x1="380" y1="560" x2="380" y2="620" stroke="#7a7a8e" stroke-width="2" marker-end="url(#hl-arr)"/>
  <text x="390" y="596" class="svg-label svg-muted">result</text>

  <!-- PostToolUse node -->
  <rect x="250" y="620" width="260" height="100" rx="8" fill="#191621" stroke="rgba(14, 210, 247, 0.15)" stroke-width="1.5"/>
  <text x="380" y="662" text-anchor="middle" class="svg-heading svg-fg">PostToolUse</text>
  <text x="380" y="688" text-anchor="middle" class="svg-sub svg-muted">Observe · Log · Update UI</text>

  <!-- PostToolUse → Side effect -->
  <line x1="380" y1="720" x2="380" y2="780" stroke="#7a7a8e" stroke-width="2" marker-end="url(#hl-arr)"/>

  <!-- Side effect node -->
  <rect x="250" y="780" width="260" height="100" rx="8" fill="#191621" stroke="rgba(244, 86, 157, 0.4)" stroke-width="1.5"/>
  <text x="380" y="822" text-anchor="middle" class="svg-heading svg-accent">Side effect</text>
  <text x="380" y="848" text-anchor="middle" class="svg-body svg-muted">Update terminal · Log event</text>
</svg>
