<svg xmlns="http://www.w3.org/2000/svg" width="100%" viewBox="0 20.00 760 580">
<defs>
  <marker id="intelligence-determinism-split-arr" markerWidth="8" markerHeight="8" refX="6" refY="3" orient="auto">
    <path d="M0,0 L0,6 L8,3 z" fill="#0fb6d6"/>
  </marker>
  <marker id="intelligence-determinism-split-arr-pink" markerWidth="8" markerHeight="8" refX="6" refY="3" orient="auto">
    <path d="M0,0 L0,6 L8,3 z" fill="#f4569d"/>
  </marker>
</defs>
<g>
  <rect x="40.00" y="40.00" width="300.00" height="100.00" rx="8" fill="var(--bg-alt)" stroke="rgba(14,210,247,0.4)" stroke-width="1.5"/>
  <text x="190.00" y="75.00" class="svg-heading svg-accent" text-anchor="middle">Rules</text>
  <text x="190.00" y="93.00" class="svg-sub" text-anchor="middle">Passive knowledge — absorbed, not called</text>
</g>
<g>
  <rect x="420.00" y="40.00" width="300.00" height="100.00" rx="8" fill="var(--bg-alt)" stroke="rgba(14,210,247,0.4)" stroke-width="1.5"/>
  <text x="570.00" y="75.00" class="svg-heading svg-accent" text-anchor="middle">Skills</text>
  <text x="570.00" y="93.00" class="svg-sub" text-anchor="middle">Workflow brain — invoked, orchestrates</text>
</g>
<g>
  <rect x="260.00" y="240.00" width="240.00" height="100.00" rx="8" fill="var(--bg-alt)" stroke="rgba(14,210,247,0.15)" stroke-width="1.5"/>
  <text x="380.00" y="275.00" class="svg-body" text-anchor="middle">Agent</text>
  <text x="380.00" y="293.00" class="svg-sub" text-anchor="middle">Plans, decides, calls tools</text>
</g>
<g>
  <rect x="40.00" y="480.00" width="300.00" height="100.00" rx="8" fill="var(--bg-alt)" stroke="rgba(14,210,247,0.15)" stroke-width="1.5"/>
  <text x="190.00" y="515.00" class="svg-body" text-anchor="middle">Hooks</text>
  <text x="190.00" y="533.00" class="svg-sub" text-anchor="middle">Intercepts tool calls</text>
</g>
<g>
  <rect x="420.00" y="480.00" width="300.00" height="100.00" rx="8" fill="var(--bg-alt)" stroke="rgba(14,210,247,0.15)" stroke-width="1.5"/>
  <text x="570.00" y="515.00" class="svg-body" text-anchor="middle">Tools</text>
  <text x="570.00" y="533.00" class="svg-sub" text-anchor="middle">Bash, Write, Read, MCP, …</text>
</g>
<path d="M 190.00 140.00 C 190.00 225.88, 380.00 325.88, 380.00 240.00" fill="none" stroke="rgba(14,210,247,0.6)" stroke-width="1.5" marker-end="url(#intelligence-determinism-split-arr)"/>
<text x="285.00" y="242.41" class="svg-label" text-anchor="middle">shape</text>
<path d="M 570.00 140.00 C 570.00 225.88, 380.00 325.88, 380.00 240.00" fill="none" stroke="rgba(14,210,247,0.6)" stroke-width="1.5" marker-end="url(#intelligence-determinism-split-arr)"/>
<text x="475.00" y="242.41" class="svg-label" text-anchor="middle">direct</text>
<path d="M 500.00 290.00 C 580.99 290.00, 570.00 560.99, 570.00 480.00" fill="none" stroke="rgba(14,210,247,0.6)" stroke-width="1.5" marker-end="url(#intelligence-determinism-split-arr)"/>
<text x="565.37" y="403.37" class="svg-label" text-anchor="middle">calls</text>
<path d="M 340.00 530.00 C 372.00 530.00, 452.00 530.00, 420.00 530.00" fill="none" stroke="rgba(14,210,247,0.6)" stroke-width="1.5" marker-end="url(#intelligence-determinism-split-arr)"/>
<text x="404.00" y="518.00" class="svg-label" text-anchor="middle">intercept</text>
</svg>