<svg xmlns="http://www.w3.org/2000/svg" width="100%" viewBox="0 8.15 760 645">
<defs>
  <marker id="hooks-lifecycle-arr" markerWidth="8" markerHeight="8" refX="6" refY="3" orient="auto">
    <path d="M0,0 L0,6 L8,3 z" fill="#0fb6d6"/>
  </marker>
  <marker id="hooks-lifecycle-arr-pink" markerWidth="8" markerHeight="8" refX="6" refY="3" orient="auto">
    <path d="M0,0 L0,6 L8,3 z" fill="#f4569d"/>
  </marker>
</defs>
<g>
  <rect x="281.48" y="28.15" width="197.04" height="70.37" rx="8" fill="var(--bg-alt)" stroke="rgba(14,210,247,0.15)" stroke-width="1.5"/>
  <text x="380.00" y="52.78" class="svg-body" text-anchor="middle">Agent</text>
  <text x="380.00" y="65.44" class="svg-sub" text-anchor="middle">Decides to call a tool</text>
</g>
<g>
  <rect x="281.48" y="140.74" width="197.04" height="70.37" rx="8" fill="var(--bg-alt)" stroke="rgba(14,210,247,0.15)" stroke-width="1.5"/>
  <text x="380.00" y="165.37" class="svg-body" text-anchor="middle">PreToolUse</text>
  <text x="380.00" y="178.04" class="svg-sub" text-anchor="middle">Annotate · Block · Validate</text>
</g>
<g>
  <rect x="28.15" y="253.33" width="197.04" height="70.37" rx="8" fill="var(--bg-alt)" stroke="rgba(14,210,247,0.4)" stroke-width="1.5"/>
  <text x="126.67" y="277.96" class="svg-heading svg-accent" text-anchor="middle">Blocked</text>
  <text x="126.67" y="290.63" class="svg-sub" text-anchor="middle">Wrong command denied</text>
</g>
<g>
  <rect x="534.81" y="253.33" width="197.04" height="70.37" rx="8" fill="var(--bg-alt)" stroke="rgba(244,86,157,0.4)" stroke-width="1.5"/>
  <text x="633.33" y="277.96" class="svg-heading svg-pink" text-anchor="middle">Annotated</text>
  <text x="633.33" y="290.63" class="svg-sub" text-anchor="middle">Context injected · tool still runs</text>
</g>
<g>
  <rect x="281.48" y="337.78" width="197.04" height="70.37" rx="8" fill="var(--bg-alt)" stroke="rgba(14,210,247,0.15)" stroke-width="1.5"/>
  <text x="380.00" y="362.41" class="svg-body" text-anchor="middle">Tool call</text>
  <text x="380.00" y="375.07" class="svg-sub" text-anchor="middle">Bash · Write · Read · MCP</text>
</g>
<g>
  <rect x="281.48" y="450.37" width="197.04" height="70.37" rx="8" fill="var(--bg-alt)" stroke="rgba(14,210,247,0.15)" stroke-width="1.5"/>
  <text x="380.00" y="475.00" class="svg-body" text-anchor="middle">PostToolUse</text>
  <text x="380.00" y="487.67" class="svg-sub" text-anchor="middle">Observe · Log · Update UI</text>
</g>
<g>
  <rect x="281.48" y="562.96" width="197.04" height="70.37" rx="8" fill="var(--bg-alt)" stroke="rgba(14,210,247,0.4)" stroke-width="1.5"/>
  <text x="380.00" y="587.59" class="svg-heading svg-accent" text-anchor="middle">Side effect</text>
  <text x="380.00" y="600.26" class="svg-sub" text-anchor="middle">Update terminal · Log event</text>
</g>
<path d="M 380.00 98.52 C 380.00 115.41, 380.00 157.63, 380.00 140.74" fill="none" stroke="rgba(14,210,247,0.6)" stroke-width="1.5" marker-end="url(#hooks-lifecycle-arr)"/>
<path d="M 281.48 175.93 C 212.25 175.93, 126.67 322.57, 126.67 253.33" fill="none" stroke="rgba(14,210,247,0.6)" stroke-width="1.5" marker-end="url(#hooks-lifecycle-arr)"/>
<text x="178.11" y="228.59" class="svg-label" text-anchor="middle">block</text>
<path d="M 478.52 175.93 C 547.75 175.93, 633.33 322.57, 633.33 253.33" fill="none" stroke="rgba(14,210,247,0.6)" stroke-width="1.5" marker-end="url(#hooks-lifecycle-arr)"/>
<text x="581.89" y="228.59" class="svg-label" text-anchor="middle">allow + context</text>
<path d="M 380.00 211.11 C 380.00 261.78, 380.00 388.44, 380.00 337.78" fill="none" stroke="rgba(14,210,247,0.6)" stroke-width="1.5" marker-end="url(#hooks-lifecycle-arr)"/>
<text x="380.00" y="300.44" class="svg-label" text-anchor="middle">pass</text>
<path d="M 380.00 408.15 C 380.00 425.04, 380.00 467.26, 380.00 450.37" fill="none" stroke="rgba(14,210,247,0.6)" stroke-width="1.5" marker-end="url(#hooks-lifecycle-arr)"/>
<text x="380.00" y="429.93" class="svg-label" text-anchor="middle">result</text>
<path d="M 380.00 520.74 C 380.00 537.63, 380.00 579.85, 380.00 562.96" fill="none" stroke="rgba(14,210,247,0.6)" stroke-width="1.5" marker-end="url(#hooks-lifecycle-arr)"/>
</svg>