<svg xmlns="http://www.w3.org/2000/svg" width="100%" viewBox="0 21.25 760 1257">
<defs>
  <marker id="post-to-linkedin-arr" markerWidth="8" markerHeight="8" refX="6" refY="3" orient="auto">
    <path d="M0,0 L0,6 L8,3 z" fill="#0fb6d6"/>
  </marker>
  <marker id="post-to-linkedin-arr-pink" markerWidth="8" markerHeight="8" refX="6" refY="3" orient="auto">
    <path d="M0,0 L0,6 L8,3 z" fill="#f4569d"/>
  </marker>
</defs>
<g>
  <rect x="460.95" y="229.96" width="257.80" height="61.87" rx="8" fill="var(--bg-alt)" stroke="rgba(14,210,247,0.15)" stroke-width="1.5"/>
  <text x="589.85" y="251.61" class="svg-body" text-anchor="middle">Feed item in english</text>

</g>
<g>
  <rect x="460.95" y="377.42" width="257.80" height="61.87" rx="8" fill="var(--bg-alt)" stroke="rgba(14,210,247,0.15)" stroke-width="1.5"/>
  <text x="589.85" y="399.08" class="svg-body" text-anchor="middle">/br-voice Translates to portugues</text>

</g>
<g>
  <rect x="459.92" y="517.67" width="257.80" height="61.87" rx="8" fill="var(--bg-alt)" stroke="rgba(14,210,247,0.15)" stroke-width="1.5"/>
  <text x="588.82" y="539.32" class="svg-body" text-anchor="middle">I rewrite it in my own voice</text>

</g>
<g>
  <rect x="457.86" y="642.44" width="257.80" height="61.87" rx="8" fill="var(--bg-alt)" stroke="rgba(14,210,247,0.15)" stroke-width="1.5"/>
  <text x="586.76" y="664.10" class="svg-body" text-anchor="middle">The skill compare and learns</text>

</g>
<g>
  <rect x="41.25" y="41.25" width="257.80" height="61.87" rx="8" fill="var(--bg-alt)" stroke="rgba(14,210,247,0.15)" stroke-width="1.5"/>
  <text x="170.15" y="62.90" class="svg-body" text-anchor="middle">Commit to main</text>

</g>
<g>
  <rect x="41.25" y="229.96" width="257.80" height="61.87" rx="8" fill="var(--bg-alt)" stroke="rgba(14,210,247,0.15)" stroke-width="1.5"/>
  <text x="170.15" y="251.61" class="svg-body" text-anchor="middle">/linkedin-post</text>

</g>
<g>
  <rect x="41.25" y="642.44" width="257.80" height="61.87" rx="8" fill="var(--bg-alt)" stroke="rgba(14,210,247,0.15)" stroke-width="1.5"/>
  <text x="170.15" y="664.10" class="svg-body" text-anchor="middle">/linkedin-publish send the post on linkedin</text>

</g>
<g>
  <rect x="44.34" y="813.62" width="257.80" height="61.87" rx="8" fill="var(--bg-alt)" stroke="rgba(14,210,247,0.15)" stroke-width="1.5"/>
  <text x="173.24" y="835.28" class="svg-body" text-anchor="middle">Grab the feed-item post link</text>

</g>
<g>
  <rect x="44.34" y="969.34" width="257.80" height="164.99" rx="8" fill="var(--bg-alt)" stroke="rgba(14,210,247,0.15)" stroke-width="1.5"/>
  <text x="173.24" y="1027.08" class="svg-body" text-anchor="middle">Trigger /publish ammend linkedin mode:</text>
  <text x="173.24" y="1045.64" class="svg-sub" text-anchor="middle">Just update the end of the post with the linkedin post link besides thoughts</text>
</g>
<g>
  <rect x="44.34" y="1196.20" width="257.80" height="61.87" rx="8" fill="var(--bg-alt)" stroke="rgba(14,210,247,0.15)" stroke-width="1.5"/>
  <text x="173.24" y="1217.86" class="svg-body" text-anchor="middle">DONE</text>

</g>
<path d="M 170.15 103.12 C 170.15 153.86, 170.15 280.69, 170.15 229.96" fill="none" stroke="rgba(14,210,247,0.6)" stroke-width="1.5" marker-end="url(#post-to-linkedin-arr)"/>
<path d="M 299.05 260.90 C 363.81 260.90, 525.71 260.90, 460.95 260.90" fill="none" stroke="rgba(14,210,247,0.6)" stroke-width="1.5" marker-end="url(#post-to-linkedin-arr)"/>
<path d="M 589.85 291.83 C 589.85 326.07, 589.85 411.66, 589.85 377.42" fill="none" stroke="rgba(14,210,247,0.6)" stroke-width="1.5" marker-end="url(#post-to-linkedin-arr)"/>
<path d="M 589.85 439.29 C 589.85 470.65, 588.82 549.02, 588.82 517.67" fill="none" stroke="rgba(14,210,247,0.6)" stroke-width="1.5" marker-end="url(#post-to-linkedin-arr)"/>
<path d="M 588.82 579.54 C 588.82 604.71, 586.76 667.62, 586.76 642.44" fill="none" stroke="rgba(14,210,247,0.6)" stroke-width="1.5" marker-end="url(#post-to-linkedin-arr)"/>
<path d="M 457.86 673.38 C 394.33 673.38, 235.53 673.38, 299.05 673.38" fill="none" stroke="rgba(14,210,247,0.6)" stroke-width="1.5" marker-end="url(#post-to-linkedin-arr)"/>
<path d="M 170.15 704.31 C 170.15 748.06, 173.24 857.36, 173.24 813.62" fill="none" stroke="rgba(14,210,247,0.6)" stroke-width="1.5" marker-end="url(#post-to-linkedin-arr)"/>
<path d="M 173.24 875.50 C 173.24 913.03, 173.24 1006.87, 173.24 969.34" fill="none" stroke="rgba(14,210,247,0.6)" stroke-width="1.5" marker-end="url(#post-to-linkedin-arr)"/>
<path d="M 173.24 1134.33 C 173.24 1159.08, 173.24 1220.95, 173.24 1196.20" fill="none" stroke="rgba(14,210,247,0.6)" stroke-width="1.5" marker-end="url(#post-to-linkedin-arr)"/>
</svg>