<svg xmlns="http://www.w3.org/2000/svg" width="100%" viewBox="0 13.78 760 749">
<defs>
  <marker id="pre-pr-pipeline-trace-arr" markerWidth="8" markerHeight="8" refX="6" refY="3" orient="auto">
    <path d="M0,0 L0,6 L8,3 z" fill="#0fb6d6"/>
  </marker>
  <marker id="pre-pr-pipeline-trace-arr-pink" markerWidth="8" markerHeight="8" refX="6" refY="3" orient="auto">
    <path d="M0,0 L0,6 L8,3 z" fill="#f4569d"/>
  </marker>
</defs>
<g>
  <rect x="253.33" y="33.78" width="236.44" height="84.44" rx="8" fill="var(--bg-alt)" stroke="rgba(14,210,247,0.4)" stroke-width="1.5"/>
  <text x="371.56" y="63.33" class="svg-heading svg-accent" text-anchor="middle">"let's wrap this up"</text>
  <text x="371.56" y="78.53" class="svg-sub" text-anchor="middle">User prompt</text>
</g>
<g>
  <rect x="253.33" y="168.89" width="236.44" height="84.44" rx="8" fill="var(--bg-alt)" stroke="rgba(244,86,157,0.4)" stroke-width="1.5"/>
  <text x="371.56" y="198.44" class="svg-heading svg-pink" text-anchor="middle">GATHER</text>
  <text x="371.56" y="213.64" class="svg-sub" text-anchor="middle">24 files · 2 commits</text>
</g>
<g>
  <rect x="33.78" y="337.78" width="160.44" height="84.44" rx="8" fill="var(--bg-alt)" stroke="rgba(14,210,247,0.15)" stroke-width="1.5"/>
  <text x="114.00" y="367.33" class="svg-body" text-anchor="middle">Lint</text>
  <text x="114.00" y="382.53" class="svg-sub" text-anchor="middle">0 errors</text>
</g>
<g>
  <rect x="211.11" y="337.78" width="160.44" height="84.44" rx="8" fill="var(--bg-alt)" stroke="rgba(14,210,247,0.15)" stroke-width="1.5"/>
  <text x="291.33" y="367.33" class="svg-body" text-anchor="middle">Unit</text>
  <text x="291.33" y="382.53" class="svg-sub" text-anchor="middle">21 pass</text>
</g>
<g>
  <rect x="388.44" y="337.78" width="160.44" height="84.44" rx="8" fill="var(--bg-alt)" stroke="rgba(14,210,247,0.15)" stroke-width="1.5"/>
  <text x="468.67" y="367.33" class="svg-body" text-anchor="middle">Integration</text>
  <text x="468.67" y="382.53" class="svg-sub" text-anchor="middle">5 pass</text>
</g>
<g>
  <rect x="565.78" y="337.78" width="160.44" height="84.44" rx="8" fill="var(--bg-alt)" stroke="rgba(14,210,247,0.15)" stroke-width="1.5"/>
  <text x="646.00" y="367.33" class="svg-body" text-anchor="middle">Code review</text>
  <text x="646.00" y="382.53" class="svg-sub" text-anchor="middle">2 warnings</text>
</g>
<g>
  <rect x="253.33" y="523.56" width="236.44" height="84.44" rx="8" fill="var(--bg-alt)" stroke="rgba(244,86,157,0.4)" stroke-width="1.5"/>
  <text x="371.56" y="553.11" class="svg-heading svg-pink" text-anchor="middle">OBSERVE</text>
  <text x="371.56" y="568.31" class="svg-sub" text-anchor="middle">✅✅✅⚠️✅</text>
</g>
<g>
  <rect x="253.33" y="658.67" width="236.44" height="84.44" rx="8" fill="var(--bg-alt)" stroke="rgba(14,210,247,0.4)" stroke-width="1.5"/>
  <text x="371.56" y="688.22" class="svg-heading svg-accent" text-anchor="middle">HUMAN GATE</text>
  <text x="371.56" y="703.42" class="svg-sub" text-anchor="middle">Accept · Dismiss</text>
</g>
<path d="M 371.56 118.22 C 371.56 138.49, 371.56 189.16, 371.56 168.89" fill="none" stroke="rgba(14,210,247,0.6)" stroke-width="1.5" marker-end="url(#pre-pr-pipeline-trace-arr)"/>
<path d="M 371.56 608.00 C 371.56 628.27, 371.56 678.93, 371.56 658.67" fill="none" stroke="rgba(14,210,247,0.6)" stroke-width="1.5" marker-end="url(#pre-pr-pipeline-trace-arr-pink)"/>
</svg>