<svg xmlns="http://www.w3.org/2000/svg" width="100%" viewBox="0 12.34 760 444">
<defs>
  <marker id="skill-orchestration-arr" markerWidth="8" markerHeight="8" refX="6" refY="3" orient="auto">
    <path d="M0,0 L0,6 L8,3 z" fill="#0fb6d6"/>
  </marker>
  <marker id="skill-orchestration-arr-pink" markerWidth="8" markerHeight="8" refX="6" refY="3" orient="auto">
    <path d="M0,0 L0,6 L8,3 z" fill="#f4569d"/>
  </marker>
</defs>
<g>
  <rect x="32.34" y="32.34" width="695.32" height="80.85" rx="8" fill="var(--bg-alt)" stroke="rgba(14,210,247,0.4)" stroke-width="1.5"/>
  <text x="380.00" y="60.64" class="svg-heading svg-accent" text-anchor="middle">/pre-pr skill</text>
  <text x="380.00" y="75.19" class="svg-sub" text-anchor="middle">Orchestrates the pipeline</text>
</g>
<g>
  <rect x="48.51" y="194.04" width="153.62" height="80.85" rx="8" fill="var(--bg-alt)" stroke="rgba(244,86,157,0.4)" stroke-width="1.5"/>
  <text x="125.32" y="222.34" class="svg-heading svg-pink" text-anchor="middle">Lint</text>
  <text x="125.32" y="236.89" class="svg-sub" text-anchor="middle">Sub-agent</text>
</g>
<g>
  <rect x="48.51" y="355.74" width="153.62" height="80.85" rx="8" fill="var(--bg-alt)" stroke="rgba(14,210,247,0.15)" stroke-width="1.5"/>
  <text x="125.32" y="384.04" class="svg-body" text-anchor="middle">CLI</text>
  <text x="125.32" y="398.60" class="svg-sub" text-anchor="middle">lint-fix + lint</text>
</g>
<g>
  <rect x="218.30" y="194.04" width="153.62" height="80.85" rx="8" fill="var(--bg-alt)" stroke="rgba(244,86,157,0.4)" stroke-width="1.5"/>
  <text x="295.11" y="222.34" class="svg-heading svg-pink" text-anchor="middle">Unit tests</text>
  <text x="295.11" y="236.89" class="svg-sub" text-anchor="middle">Sub-agent</text>
</g>
<g>
  <rect x="218.30" y="355.74" width="153.62" height="80.85" rx="8" fill="var(--bg-alt)" stroke="rgba(14,210,247,0.15)" stroke-width="1.5"/>
  <text x="295.11" y="384.04" class="svg-body" text-anchor="middle">CLI</text>
  <text x="295.11" y="398.60" class="svg-sub" text-anchor="middle">lein test</text>
</g>
<g>
  <rect x="388.09" y="194.04" width="153.62" height="80.85" rx="8" fill="var(--bg-alt)" stroke="rgba(244,86,157,0.4)" stroke-width="1.5"/>
  <text x="464.89" y="222.34" class="svg-heading svg-pink" text-anchor="middle">Integration</text>
  <text x="464.89" y="236.89" class="svg-sub" text-anchor="middle">Sub-agent</text>
</g>
<g>
  <rect x="388.09" y="355.74" width="153.62" height="80.85" rx="8" fill="var(--bg-alt)" stroke="rgba(14,210,247,0.15)" stroke-width="1.5"/>
  <text x="464.89" y="384.04" class="svg-body" text-anchor="middle">CLI</text>
  <text x="464.89" y="398.60" class="svg-sub" text-anchor="middle">lein integration</text>
</g>
<g>
  <rect x="557.87" y="194.04" width="153.62" height="80.85" rx="8" fill="var(--bg-alt)" stroke="rgba(244,86,157,0.4)" stroke-width="1.5"/>
  <text x="634.68" y="222.34" class="svg-heading svg-pink" text-anchor="middle">Code review</text>
  <text x="634.68" y="236.89" class="svg-sub" text-anchor="middle">Sub-agent</text>
</g>
<g>
  <rect x="557.87" y="355.74" width="153.62" height="80.85" rx="8" fill="var(--bg-alt)" stroke="rgba(14,210,247,0.15)" stroke-width="1.5"/>
  <text x="634.68" y="384.04" class="svg-body" text-anchor="middle">MCP</text>
  <text x="634.68" y="398.60" class="svg-sub" text-anchor="middle">search + read</text>
</g>
<path d="M 125.32 274.89 C 125.32 307.23, 125.32 388.09, 125.32 355.74" fill="none" stroke="rgba(14,210,247,0.6)" stroke-width="1.5" marker-end="url(#skill-orchestration-arr-pink)"/>
<path d="M 295.11 274.89 C 295.11 307.23, 295.11 388.09, 295.11 355.74" fill="none" stroke="rgba(14,210,247,0.6)" stroke-width="1.5" marker-end="url(#skill-orchestration-arr-pink)"/>
<path d="M 464.89 274.89 C 464.89 307.23, 464.89 388.09, 464.89 355.74" fill="none" stroke="rgba(14,210,247,0.6)" stroke-width="1.5" marker-end="url(#skill-orchestration-arr-pink)"/>
<path d="M 634.68 274.89 C 634.68 307.23, 634.68 388.09, 634.68 355.74" fill="none" stroke="rgba(14,210,247,0.6)" stroke-width="1.5" marker-end="url(#skill-orchestration-arr-pink)"/>
</svg>